{
  "asset": {
    "generator": "UnityGLTF",
    "version": "2.0"
  },
  "buffers": [
    {
      "uri": "data:application/octet-stream;base64,",
      "byteLength": 7080
    }
  ],
  "bufferViews": [
    {
      "buffer": 0,
      "byteOffset": 0,
      "byteLength": 288,
      "byteStride": 12,
      "target": 34962
    },
    {
      "buffer": 0,
      "byteOffset": 288,
      "byteLength": 288,
      "byteStride": 12,
      "target": 34962
    },
    {
      "buffer": 0,
      "byteOffset": 576,
      "byteLength": 384,
      "byteStride": 16,
      "target": 34962
    },
    {
      "buffer": 0,
      "byteOffset": 960,
      "byteLength": 192,
      "byteStride": 8,
      "target": 34962
    },
    {
      "buffer": 0,
      "byteOffset": 1152,
      "byteLength": 36,
      "target": 34963
    },
    {
      "buffer": 0,
      "byteOffset": 1188,
      "byteLength": 288,
      "byteStride": 12,
      "target": 34962
    },
    {
      "buffer": 0,
      "byteOffset": 1476,
      "byteLength": 288,
      "byteStride": 12,
      "target": 34962
    },
    {
      "buffer": 0,
      "byteOffset": 1764,
      "byteLength": 384,
      "byteStride": 16,
      "target": 34962
    },
    {
      "buffer": 0,
      "byteOffset": 2148,
      "byteLength": 192,
      "byteStride": 8,
      "target": 34962
    },
    {
      "buffer": 0,
      "byteOffset": 2340,
      "byteLength": 36,
      "target": 34963
    },
    {
      "buffer": 0,
      "byteOffset": 2376,
      "byteLength": 288,
      "byteStride": 12,
      "target": 34962
    },
    {
      "buffer": 0,
      "byteOffset": 2664,
      "byteLength": 288,
      "byteStride": 12,
      "target": 34962
    },
    {
      "buffer": 0,
      "byteOffset": 2952,
      "byteLength": 384,
      "byteStride": 16,
      "target": 34962
    },
    {
      "buffer": 0,
      "byteOffset": 3336,
      "byteLength": 192,
      "byteStride": 8,
      "target": 34962
    },
    {
      "buffer": 0,
      "byteOffset": 3528,
      "byteLength": 36,
      "target": 34963
    },
    {
      "buffer": 0,
      "byteOffset": 3564,
      "byteLength": 288,
      "byteStride": 12,
      "target": 34962
    },
    {
      "buffer": 0,
      "byteOffset": 3852,
      "byteLength": 288,
      "byteStride": 12,
      "target": 34962
    },
    {
      "buffer": 0,
      "byteOffset": 4140,
      "byteLength": 384,
      "byteStride": 16,
      "target": 34962
    },
    {
      "buffer": 0,
      "byteOffset": 4524,
      "byteLength": 192,
      "byteStride": 8,
      "target": 34962
    },
    {
      "buffer": 0,
      "byteOffset": 4716,
      "byteLength": 36,
      "target": 34963
    },
    {
      "buffer": 0,
      "byteOffset": 4752,
      "byteLength": 276,
      "byteStride": 12,
      "target": 34962
    },
    {
      "buffer": 0,
      "byteOffset": 5028,
      "byteLength": 276,
      "byteStride": 12,
      "target": 34962
    },
    {
      "buffer": 0,
      "byteOffset": 5304,
      "byteLength": 368,
      "byteStride": 16,
      "target": 34962
    },
    {
      "buffer": 0,
      "byteOffset": 5672,
      "byteLength": 184,
      "byteStride": 8,
      "target": 34962
    },
    {
      "buffer": 0,
      "byteOffset": 5856,
      "byteLength": 36,
      "target": 34963
    },
    {
      "buffer": 0,
      "byteOffset": 5892,
      "byteLength": 288,
      "byteStride": 12,
      "target": 34962
    },
    {
      "buffer": 0,
      "byteOffset": 6180,
      "byteLength": 288,
      "byteStride": 12,
      "target": 34962
    },
    {
      "buffer": 0,
      "byteOffset": 6468,
      "byteLength": 384,
      "byteStride": 16,
      "target": 34962
    },
    {
      "buffer": 0,
      "byteOffset": 6852,
      "byteLength": 192,
      "byteStride": 8,
      "target": 34962
    },
    {
      "buffer": 0,
      "byteOffset": 7044,
      "byteLength": 36,
      "target": 34963
    }
  ],
  "accessors": [
    {
      "bufferView": 0,
      "byteOffset": 0,
      "componentType": 5126,
      "normalized": false,
      "count": 24,
      "min": [
        -0.20000000298023224,
        -1,
        -0.20000000298023224
      ],
      "max": [
        0.20000000298023224,
        0,
        0.20000000298023224
      ],
      "type": "VEC3"
    },
    {
      "bufferView": 1,
      "byteOffset": 0,
      "componentType": 5126,
      "normalized": false,
      "count": 24,
      "min": [
        -1,
        -1,
        -1
      ],
      "max": [
        1,
        0.5773502588272095,
        1
      ],
      "type": "VEC3"
    },
    {
      "bufferView": 2,
      "byteOffset": 0,
      "componentType": 5126,
      "normalized": false,
      "count": 24,
      "min": [
        -1,
        -0.4082483649253845,
        -1,
        1
      ],
      "max": [
        1,
        0.4082483649253845,
        1,
        1
      ],
      "type": "VEC4"
    },
    {
      "bufferView": 3,
      "byteOffset": 0,
      "componentType": 5126,
      "normalized": false,
      "count": 24,
      "min": [
        -0.24730809032917023,
        1.7838294506072998
      ],
      "max": [
        -0.0029557652305811644,
        1.9930933713912964
      ],
      "type": "VEC2"
    },
    {
      "bufferView": 4,
      "byteOffset": 0,
      "componentType": 5121,
      "normalized": false,
      "count": 36,
      "min": [
        0
      ],
      "max": [
        23
      ],
      "type": "SCALAR"
    },
    {
      "bufferView": 5,
      "byteOffset": 0,
      "componentType": 5126,
      "normalized": false,
      "count": 24,
      "min": [
        -0.20000000298023224,
        -1,
        -0.20000000298023224
      ],
      "max": [
        0.20000000298023224,
        0,
        0.20000000298023224
      ],
      "type": "VEC3"
    },
    {
      "bufferView": 6,
      "byteOffset": 0,
      "componentType": 5126,
      "normalized": false,
      "count": 24,
      "min": [
        -1,
        -1,
        -1
      ],
      "max": [
        1,
        0.5773502588272095,
        1
      ],
      "type": "VEC3"
    },
    {
      "bufferView": 7,
      "byteOffset": 0,
      "componentType": 5126,
      "normalized": false,
      "count": 24,
      "min": [
        -1,
        -0.4082483649253845,
        -1,
        1
      ],
      "max": [
        1,
        0.4082483649253845,
        1,
        1
      ],
      "type": "VEC4"
    },
    {
      "bufferView": 8,
      "byteOffset": 0,
      "componentType": 5126,
      "normalized": false,
      "count": 24,
      "min": [
        -0.5284831523895264,
        1.7841768264770508
      ],
      "max": [
        -0.28369399905204773,
        1.9931163787841797
      ],
      "type": "VEC2"
    },
    {
      "bufferView": 9,
      "byteOffset": 0,
      "componentType": 5121,
      "normalized": false,
      "count": 36,
      "min": [
        0
      ],
      "max": [
        23
      ],
      "type": "SCALAR"
    },
    {
      "bufferView": 10,
      "byteOffset": 0,
      "componentType": 5126,
      "normalized": false,
      "count": 24,
      "min": [
        -1.6391405566196227e-8,
        -1,
        -0.20000000298023224
      ],
      "max": [
        0.4000000059604645,
        0.10000000149011612,
        0.20000000298023224
      ],
      "type": "VEC3"
    },
    {
      "bufferView": 11,
      "byteOffset": 0,
      "componentType": 5126,
      "normalized": false,
      "count": 24,
      "min": [
        -1,
        -1,
        -1
      ],
      "max": [
        1,
        0.5773502588272095,
        1
      ],
      "type": "VEC3"
    },
    {
      "bufferView": 12,
      "byteOffset": 0,
      "componentType": 5126,
      "normalized": false,
      "count": 24,
      "min": [
        -1,
        -0.4082483649253845,
        -1,
        1
      ],
      "max": [
        1,
        0.4082483649253845,
        1,
        1
      ],
      "type": "VEC4"
    },
    {
      "bufferView": 13,
      "byteOffset": 0,
      "componentType": 5126,
      "normalized": false,
      "count": 24,
      "min": [
        0.752797544002533,
        1.5239996910095215
      ],
      "max": [
        0.997631311416626,
        1.7456886768341064
      ],
      "type": "VEC2"
    },
    {
      "bufferView": 14,
      "byteOffset": 0,
      "componentType": 5121,
      "normalized": false,
      "count": 36,
      "min": [
        0
      ],
      "max": [
        23
      ],
      "type": "SCALAR"
    },
    {
      "bufferView": 15,
      "byteOffset": 0,
      "componentType": 5126,
      "normalized": false,
      "count": 24,
      "min": [
        -0.40000003576278687,
        -1,
        -0.20000000298023224
      ],
      "max": [
        2.1657342853630265e-15,
        0.10000000149011612,
        0.20000000298023224
      ],
      "type": "VEC3"
    },
    {
      "bufferView": 16,
      "byteOffset": 0,
      "componentType": 5126,
      "normalized": false,
      "count": 24,
      "min": [
        -1,
        -1,
        -1
      ],
      "max": [
        1,
        0.5773502588272095,
        1
      ],
      "type": "VEC3"
    },
    {
      "bufferView": 17,
      "byteOffset": 0,
      "componentType": 5126,
      "normalized": false,
      "count": 24,
      "min": [
        -1,
        -0.4082483649253845,
        -1,
        1
      ],
      "max": [
        1,
        0.4082483649253845,
        1,
        1
      ],
      "type": "VEC4"
    },
    {
      "bufferView": 18,
      "byteOffset": 0,
      "componentType": 5126,
      "normalized": false,
      "count": 24,
      "min": [
        0.4712824523448944,
        1.524240493774414
      ],
      "max": [
        0.7166106104850769,
        1.7456337213516235
      ],
      "type": "VEC2"
    },
    {
      "bufferView": 19,
      "byteOffset": 0,
      "componentType": 5121,
      "normalized": false,
      "count": 36,
      "min": [
        0
      ],
      "max": [
        23
      ],
      "type": "SCALAR"
    },
    {
      "bufferView": 20,
      "byteOffset": 0,
      "componentType": 5126,
      "normalized": false,
      "count": 23,
      "min": [
        -4,
        0,
        -4
      ],
      "max": [
        4,
        8,
        4
      ],
      "type": "VEC3"
    },
    {
      "bufferView": 21,
      "byteOffset": 0,
      "componentType": 5126,
      "normalized": false,
      "count": 23,
      "min": [
        -1,
        -1,
        -1
      ],
      "max": [
        1,
        1,
        0.7071067690849304
      ],
      "type": "VEC3"
    },
    {
      "bufferView": 22,
      "byteOffset": 0,
      "componentType": 5126,
      "normalized": false,
      "count": 23,
      "min": [
        -1,
        -0.4082483649253845,
        -1,
        1
      ],
      "max": [
        1,
        0.4082483649253845,
        1,
        1
      ],
      "type": "VEC4"
    },
    {
      "bufferView": 23,
      "byteOffset": 0,
      "componentType": 5126,
      "normalized": false,
      "count": 23,
      "min": [
        0.0179157517850399,
        1.005625605583191
      ],
      "max": [
        0.4943026006221771,
        1.3655855655670166
      ],
      "type": "VEC2"
    },
    {
      "bufferView": 24,
      "byteOffset": 0,
      "componentType": 5121,
      "normalized": false,
      "count": 36,
      "min": [
        0
      ],
      "max": [
        22
      ],
      "type": "SCALAR"
    },
    {
      "bufferView": 25,
      "byteOffset": 0,
      "componentType": 5126,
      "normalized": false,
      "count": 24,
      "min": [
        -0.4000000059604645,
        0.30000001192092896,
        -0.30000001192092896
      ],
      "max": [
        0.4000000059604645,
        1.2000000476837158,
        0.30000001192092896
      ],
      "type": "VEC3"
    },
    {
      "bufferView": 26,
      "byteOffset": 0,
      "componentType": 5126,
      "normalized": false,
      "count": 24,
      "min": [
        -1,
        -1,
        -1
      ],
      "max": [
        1,
        1,
        1
      ],
      "type": "VEC3"
    },
    {
      "bufferView": 27,
      "byteOffset": 0,
      "componentType": 5126,
      "normalized": false,
      "count": 24,
      "min": [
        -1,
        0,
        -1,
        1
      ],
      "max": [
        1,
        0,
        1,
        1
      ],
      "type": "VEC4"
    },
    {
      "bufferView": 28,
      "byteOffset": 0,
      "componentType": 5126,
      "normalized": false,
      "count": 24,
      "min": [
        0.00442936085164547,
        1.676281452178955
      ],
      "max": [
        0.43237024545669556,
        1.9969269037246704
      ],
      "type": "VEC2"
    },
    {
      "bufferView": 29,
      "byteOffset": 0,
      "componentType": 5121,
      "normalized": false,
      "count": 36,
      "min": [
        0
      ],
      "max": [
        23
      ],
      "type": "SCALAR"
    }
  ],
  "scene": 0,
  "scenes": [
    {
      "nodes": [
        7
      ],
      "name": "character-a"
    }
  ],
  "nodes": [
    {
      "name": "leg-left",
      "translation": [
        0.20000000298023224,
        1,
        2.0348877273414397e-14
      ],
      "rotation": [
        0,
        0,
        0,
        -1
      ],
      "scale": [
        1,
        1,
        1
      ],
      "extensions": {
        "KHR_node_visibility": {
          "visible": true
        }
      },
      "mesh": 0
    },
    {
      "name": "leg-right",
      "translation": [
        -0.20000000298023224,
        1,
        2.1837820587218212e-14
      ],
      "rotation": [
        0,
        0,
        0,
        -1
      ],
      "scale": [
        1,
        1,
        1
      ],
      "extensions": {
        "KHR_node_visibility": {
          "visible": true
        }
      },
      "mesh": 1
    },
    {
      "name": "arm-left",
      "translation": [
        0.39999985694885254,
        1.100000023841858,
        -0.09999999403953552
      ],
      "rotation": [
        -0.003748078364878893,
        0,
        0,
        -0.9999929666519165
      ],
      "scale": [
        1,
        1,
        1
      ],
      "extensions": {
        "KHR_node_visibility": {
          "visible": true
        }
      },
      "mesh": 2
    },
    {
      "name": "arm-right",
      "translation": [
        -0.40000009536743164,
        1.100000023841858,
        -0.09999999403953552
      ],
      "rotation": [
        -0.003748078364878893,
        0,
        0,
        -0.9999929666519165
      ],
      "scale": [
        1,
        1,
        1
      ],
      "extensions": {
        "KHR_node_visibility": {
          "visible": true
        }
      },
      "mesh": 3
    },
    {
      "name": "head",
      "translation": [
        0,
        1.2000000476837158,
        0
      ],
      "rotation": [
        0,
        -0.022486625239253044,
        0,
        -0.9997471570968628
      ],
      "scale": [
        0.10000000149011612,
        0.10000000149011612,
        0.10000000149011612
      ],
      "extensions": {
        "KHR_node_visibility": {
          "visible": true
        }
      },
      "mesh": 4
    },
    {
      "name": "torso",
      "children": [
        2,
        3,
        4
      ],
      "translation": [
        0,
        0.699999988079071,
        0
      ],
      "rotation": [
        0.003748078364878893,
        0,
        0,
        -0.9999929666519165
      ],
      "scale": [
        1,
        1,
        1
      ],
      "extensions": {
        "KHR_node_visibility": {
          "visible": true
        }
      },
      "mesh": 5
    },
    {
      "name": "root",
      "children": [
        0,
        1,
        5
      ],
      "extensions": {
        "KHR_node_visibility": {
          "visible": true
        }
      }
    },
    {
      "name": "character-a",
      "children": [
        6
      ],
      "extensions": {
        "KHR_node_visibility": {
          "visible": true
        }
      }
    }
  ],
  "meshes": [
    {
      "primitives": [
        {
          "material": 0,
          "mode": 4,
          "attributes": {
            "POSITION": 0,
            "NORMAL": 1,
            "TANGENT": 2,
            "TEXCOORD_0": 3
          },
          "indices": 4
        }
      ]
    },
    {
      "primitives": [
        {
          "material": 0,
          "mode": 4,
          "attributes": {
            "POSITION": 5,
            "NORMAL": 6,
            "TANGENT": 7,
            "TEXCOORD_0": 8
          },
          "indices": 9
        }
      ]
    },
    {
      "primitives": [
        {
          "material": 0,
          "mode": 4,
          "attributes": {
            "POSITION": 10,
            "NORMAL": 11,
            "TANGENT": 12,
            "TEXCOORD_0": 13
          },
          "indices": 14
        }
      ]
    },
    {
      "primitives": [
        {
          "material": 0,
          "mode": 4,
          "attributes": {
            "POSITION": 15,
            "NORMAL": 16,
            "TANGENT": 17,
            "TEXCOORD_0": 18
          },
          "indices": 19
        }
      ]
    },
    {
      "primitives": [
        {
          "material": 0,
          "mode": 4,
          "attributes": {
            "POSITION": 20,
            "NORMAL": 21,
            "TANGENT": 22,
            "TEXCOORD_0": 23
          },
          "indices": 24
        }
      ]
    },
    {
      "primitives": [
        {
          "material": 0,
          "mode": 4,
          "attributes": {
            "POSITION": 25,
            "NORMAL": 26,
            "TANGENT": 27,
            "TEXCOORD_0": 28
          },
          "indices": 29
        }
      ]
    }
  ],
  "materials": [
    {
      "pbrMetallicRoughness": {
        "baseColorFactor": [
          1,
          1,
          1,
          1
        ],
        "baseColorTexture": {
          "index": 0,
          "texCoord": 0
        }
      },
      "emissiveFactor": [
        0,
        0,
        0
      ],
      "alphaMode": "OPAQUE",
      "doubleSided": false,
      "extensions": {
        "KHR_materials_unlit": {}
      }
    }
  ],
  "textures": [
    {
      "sampler": 0,
      "name": "base.jpg",
      "source": 0
    }
  ],
  "samplers": [
    {
      "magFilter": 9729,
      "minFilter": 9729,
      "wrapS": 10497,
      "wrapT": 10497
    }
  ],
  "images": [
    {
      "uri": "data:image/jpeg;base64,",
      "mimeType": "image/jpeg",
      "name": "base.jpg"
    }
  ],
  "extensionsRequired": [
    "KHR_materials_unlit"
  ],
  "extensionsUsed": [
    "KHR_node_visibility",
    "KHR_materials_unlit"
  ]
}